<svg id="Layer_1" data-name="Layer 1" xmlns="http://www.w3.org/2000/svg" viewBox="0 0 60 20"><defs><style>.cls-1{fill:#d00;}</style></defs><path class="cls-1" d="M11.68,8.68h-.45a41.14,41.14,0,0,0-1.69,8.44H6.29A41.14,41.14,0,0,0,4.6,8.68H4.14a49.61,49.61,0,0,1,1.2,8.44H2V3.53H6.49c.28,1.88.71,4.45,1.2,8.1h.45c.49-3.65.92-6.22,1.2-8.1h4.54V17.12h-3.4A51.72,51.72,0,0,1,11.68,8.68Z"/><path class="cls-1" d="M22.71,5.14V15.51c0,.9-1.09,1.63-2.4,1.63H17.48c-1.31,0-2.4-.73-2.4-1.63V5.14c0-.89,1.09-1.63,2.4-1.63h2.83C21.62,3.51,22.71,4.25,22.71,5.14Zm-3.32,5.19c0-2.12-.11-3.77-.23-5.19h-.54a51.83,51.83,0,0,0,0,10.37h.54C19.28,14.09,19.39,12.44,19.39,10.33Z"/><path class="cls-1" d="M27.59,15.49h.54a50.94,50.94,0,0,0,.26-5.18V3.53H32.1L31,17.12H24.67L23.62,3.53h3.71v6.78A50.94,50.94,0,0,0,27.59,15.49Z"/><path class="cls-1" d="M37.73,11.14H36c.46,1.48.46,2.1.46,6h-3.4V3.53h3.4c0,3.88,0,4.5-.46,6h1.72c-.46-1.48-.46-2.1-.46-6h3.4V17.12h-3.4C37.27,13.24,37.27,12.62,37.73,11.14Z"/><path class="cls-1" d="M47,17.14H44.15c-1.31,0-2.4-.73-2.4-1.63v-12H45v6.8a51.32,51.32,0,0,0,.25,5.18h.54c.12-1.42.23-3.07.23-5.18V3.53h3.32v12C49.38,16.41,48.29,17.14,47,17.14Z"/><path class="cls-1" d="M55.94,10.33A2.6,2.6,0,0,1,58,13.18v2.31c0,.9-1.54,1.63-2.86,1.63H50.46V3.53h4.68c1.32,0,2.86.74,2.86,1.63V7.47A2.61,2.61,0,0,1,55.94,10.33Zm-1.28-3c0-1.67-.57-2.17-.57-2.17H53.6a11.46,11.46,0,0,1,.12,2.17,11.53,11.53,0,0,1-.12,2.18h.46S54.66,9,54.66,7.33Zm-.6,3.81H53.6a11.67,11.67,0,0,1,.12,2.18,11.46,11.46,0,0,1-.12,2.17h.49s.57-.5.57-2.17S54.06,11.14,54.06,11.14Z"/></svg>