<svg id="Layer_1" data-name="Layer 1" xmlns="http://www.w3.org/2000/svg" viewBox="0 0 612 612"><defs><style>.cls-1{fill:#fff;}</style></defs><path class="cls-1" d="M578.08,376a7.1,7.1,0,0,0-10.47-3.13,736.84,736.84,0,0,1-66.93,38.95q-44.58,22.49-66.49,27.75c-14.4,3.16-26.46,2.35-36.32-3.46C380.09,425.58,372,392.36,373.54,337c.14-5.11.35-10.34.64-15.66.21-4,.47-8,.75-11.84,20.76-8.14,44.47-13.56,71.34-16.64,18.32-1.86,33.2-1.86,44.48-.09a13.82,13.82,0,0,0,15.8-12.13c1.6-13.21.41-20.89-3.36-23.11-8.73-5.16-29.26-3.19-61.86,5.73-19.35,5.11-38.78,12.15-58.25,20.09,20.87-45.81,45.67-99.92,73.74-161.23a8.92,8.92,0,0,0-7.14-12.62,45.6,45.6,0,0,0-14.56.87c-15.34,3.24-26.47,14-36.22,28.66a6.78,6.78,0,0,0-1.32,3.11c-8.77,14.32-15.59,31.68-22.86,49-4,9.31-8,19.08-11.92,28.4l-5.1,11c-9.74,23.74-19.67,46.91-29.43,68.8-17,10.57-32.55,19.59-44.74,25.3q-29.08,13.62-83.12,28.91l-10.18-46.19-12.88-59.78c30,2.78,54.45-18,56.72-41.55,1.7-17.56-9-36.07-23.69-41.69-24.69-9.44-53,20.43-64.57,38.7a91.93,91.93,0,0,0-10.08,22.15c-3.61,11.69-7.6,32.16,9.66,100.86,2.29,9.11,5.69,22,10.32,37.4q-62.93,11.73-92,24.94T29.15,420.92q-5.08,18.1,8.42,35.8t37.88,24.56Q117,493,155.76,473.5t49.45-57.37q4.81-17.1,1.9-38.24a472.12,472.12,0,0,0,103.19-39.5c-2.11,4.47-4.28,9.15-6.35,13.4-1.94,4.43-4.35,8.8-6.24,12.77l-.06.46c-5.79,12.82-11,24.78-16.21,36.73L266.6,434.93l-11.69,26.56q-2.53,5.22-5.4,11.41c-2.49,5.4-2.6,5.81-2.36,6.27,2.16,4,24.92-.83,43-14.11a83.18,83.18,0,0,0,13.28-12.24c7.23-8.25,12.79-17.95,17.72-30.26,3.05-7.61,8-19.07,13.89-32.54.95,7.07,1.12,14.22,2.61,21.23,6.92,32.71,16.89,53.15,30.41,61.13,16.34,9.64,44,6.54,83.74-9.33,36.92-15,77.32-38.16,121.54-70A14.19,14.19,0,0,0,578.08,376ZM157.42,418.48q-6.54,23.29-24,34.31t-38.66,5q-28.71-8.07-23-28.39,6.06-21.56,88-40.78A81.09,81.09,0,0,1,157.42,418.48Z"/></svg>