<svg id="Layer_1" data-name="Layer 1" xmlns="http://www.w3.org/2000/svg" viewBox="0 0 60 20"><defs><style>.cls-1{fill:#9b5efc;}</style></defs><path class="cls-1" d="M12,8.71h-.45A40.16,40.16,0,0,0,9.91,17H6.71A40.16,40.16,0,0,0,5.06,8.71H4.61A49.29,49.29,0,0,1,5.79,17H2.45V3.65H6.91c.28,1.85.7,4.37,1.18,8h.44C9,8,9.43,5.5,9.71,3.65h4.46V17H10.83A49.29,49.29,0,0,1,12,8.71Z"/><path class="cls-1" d="M22.84,5.23V15.42c0,.88-1.07,1.6-2.36,1.6H17.7c-1.29,0-2.35-.72-2.35-1.6V5.23c0-.87,1.06-1.6,2.35-1.6h2.78C21.77,3.63,22.84,4.36,22.84,5.23Zm-3.26,5.1c0-2.08-.11-3.7-.22-5.1h-.53a50.05,50.05,0,0,0,0,10.19h.53C19.47,14,19.58,12.41,19.58,10.33Z"/><path class="cls-1" d="M27.63,15.4h.53a49,49,0,0,0,.26-5.09V3.65h3.64L31,17H24.77l-1-13.35h3.65v6.66A49.37,49.37,0,0,0,27.63,15.4Z"/><path class="cls-1" d="M37.59,11.13H35.9c.45,1.45.45,2.06.45,5.87H33V3.65h3.34c0,3.82,0,4.43-.45,5.88h1.69c-.45-1.45-.45-2.06-.45-5.88h3.33V17H37.14C37.14,13.19,37.14,12.58,37.59,11.13Z"/><path class="cls-1" d="M46.67,17H43.9c-1.29,0-2.36-.72-2.36-1.6V3.65h3.22v6.68A49,49,0,0,0,45,15.42h.53c.11-1.39.22-3,.22-5.09V3.65H49V15.42C49,16.3,48,17,46.67,17Z"/><path class="cls-1" d="M55.48,10.33a2.55,2.55,0,0,1,2,2.8V15.4c0,.88-1.52,1.6-2.81,1.6h-4.6V3.65h4.6c1.29,0,2.81.73,2.81,1.6V7.52A2.57,2.57,0,0,1,55.48,10.33ZM54.22,7.39c0-1.64-.57-2.14-.57-2.14h-.47a12.24,12.24,0,0,1,.11,2.14,12.24,12.24,0,0,1-.11,2.14h.45S54.22,9,54.22,7.39Zm-.59,3.74h-.45a12,12,0,0,1,.11,2.13,12.24,12.24,0,0,1-.11,2.14h.47s.57-.5.57-2.14S53.63,11.13,53.63,11.13Z"/></svg>