<?xml version="1.0" encoding="utf-8"?>
<!-- Generator: Adobe Illustrator 26.2.1, SVG Export Plug-In . SVG Version: 6.00 Build 0)  -->
<svg version="1.1" id="Layer_1" xmlns="http://www.w3.org/2000/svg" xmlns:xlink="http://www.w3.org/1999/xlink" x="0px" y="0px"
	 viewBox="0 0 800 800" style="enable-background:new 0 0 800 800;" xml:space="preserve">
<style type="text/css">
	.st0{fill-rule:evenodd;clip-rule:evenodd;fill:#FFFFFF;}
</style>
<desc>Created with Sketch.</desc>
<g id="Page-1">
	<g id="Dribbble-Light-Preview" transform="translate(-420.000000, -2159.000000)">
		<g id="icons" transform="translate(56.000000, 160.000000)">
			<path id="profile-_x5B__x23_1335_x5D_" class="st0" d="M764,2399c-88.2,0-160-71.8-160-160s71.8-160,160-160s160,71.8,160,160
				S852.2,2399,764,2399 M914.3,2425.9c54.6-44,89.7-111.3,89.7-186.9c0-132.6-107.4-240-240-240s-240,107.4-240,240
				c0,75.6,35,143,89.7,186.9C467.3,2480.9,364,2616.8,364,2799h80c0-200,143.6-320,320-320s320,120,320,320h80
				C1164,2616.8,1060.7,2480.9,914.3,2425.9"/>
		</g>
	</g>
</g>
</svg>
